<svg width="76" height="76" viewBox="0 0 76 76" fill="none" xmlns="http://www.w3.org/2000/svg">
<g filter="url(#filter0_d_2_9)">
<rect x="13" y="9" width="50" height="50" rx="10" fill="#343A46"/>
</g>
<g filter="url(#filter1_d_2_9)">
<path d="M52.8212 26.613C52.3316 26.4407 51.8379 26.281 51.3405 26.1342C51.4241 25.7838 51.501 25.4377 51.5693 25.0977C52.6902 19.5139 51.9574 15.0155 49.4545 13.5344C47.0548 12.1145 43.1303 13.595 39.1667 17.1349C38.7761 17.4844 38.3941 17.844 38.0212 18.2133C37.7716 17.9677 37.5175 17.7269 37.2591 17.491C33.1051 13.706 28.9414 12.1108 26.4412 13.5961C24.0437 15.0204 23.3337 19.2493 24.3429 24.5411C24.4432 25.0652 24.5566 25.5866 24.6828 26.1048C24.0934 26.2767 23.5247 26.4596 22.9805 26.6544C18.1102 28.3969 15 31.1277 15 33.9602C15 36.8857 18.339 39.8201 23.4115 41.5993C23.8228 41.743 24.2374 41.8761 24.6551 41.9986C24.5195 42.5567 24.3991 43.1186 24.294 43.6836C23.3319 48.8837 24.0832 53.0125 26.4743 54.4278C28.9439 55.8894 33.089 54.3872 37.1249 50.7666C37.4522 50.4722 37.7723 50.1695 38.0848 49.8588C38.4887 50.2586 38.9033 50.6469 39.3283 51.0231C43.2379 54.4754 47.099 55.8694 49.4878 54.4503C51.9551 52.9845 52.757 48.549 51.7159 43.1525C51.6339 42.7298 51.5419 42.3091 51.4401 41.8909C51.7312 41.8024 52.0169 41.7113 52.2954 41.6165C57.5689 39.8236 61 36.9248 61 33.9602C61 31.1174 57.7893 28.3682 52.8212 26.613ZM51.6775 39.7024C51.4259 39.7878 51.1679 39.8702 50.9048 39.9505C50.3226 38.0591 49.537 36.048 48.5755 33.97C49.493 31.9416 50.2484 29.9562 50.8142 28.0772C51.2848 28.2169 51.7414 28.3643 52.1817 28.5197C56.4385 30.0237 59.0349 32.247 59.0349 33.9602C59.0349 35.7851 56.2307 38.154 51.6775 39.7024ZM49.7882 43.5442C50.2486 45.9303 50.3142 48.0878 50.0092 49.7745C49.7354 51.2901 49.1845 52.3004 48.5031 52.7052C47.0536 53.5663 43.9534 52.447 40.61 49.4944C40.2147 49.1447 39.829 48.7837 39.4533 48.412C40.7496 46.9572 42.0449 45.2661 43.3092 43.3878C45.533 43.1854 47.6339 42.8542 49.5392 42.4022C49.631 42.7808 49.714 43.1616 49.7882 43.5442ZM30.6824 52.5563C29.2661 53.0695 28.138 53.0843 27.4561 52.6808C26.0051 51.8221 25.4019 48.5068 26.2247 44.0598C26.3225 43.5343 26.4345 43.0117 26.5606 42.4926C28.4448 42.9204 30.5304 43.228 32.7594 43.4135C34.0323 45.2514 35.3651 46.9407 36.7082 48.4199C36.4228 48.7033 36.1306 48.9795 35.8319 49.2482C34.0471 50.8492 32.2586 51.9851 30.6824 52.5563ZM24.0473 39.6912C21.8042 38.9044 19.9518 37.8819 18.6822 36.7661C17.5411 35.7635 16.9652 34.7679 16.9652 33.9602C16.9652 32.2413 19.4624 30.0488 23.6273 28.5586C24.1328 28.3779 24.6618 28.2074 25.2107 28.0473C25.7865 29.9687 26.5415 31.9778 27.4527 34.0093C26.5296 36.0709 25.7638 38.112 25.1825 40.0561C24.8013 39.944 24.4227 39.8224 24.0473 39.6912ZM26.2714 24.1537C25.407 19.6199 25.9811 16.1998 27.4259 15.3415C28.9648 14.4272 32.3677 15.7307 35.9544 18.999C36.1883 19.2126 36.4184 19.4306 36.6446 19.6527C35.3081 21.1255 33.9876 22.8023 32.726 24.6293C30.5626 24.8351 28.4917 25.1655 26.5877 25.6083C26.4704 25.1263 26.3649 24.6412 26.2714 24.1537ZM46.1138 29.1819C45.6641 28.3847 45.1977 27.5976 44.7149 26.8211C46.1826 27.0115 47.5888 27.2643 48.9094 27.5734C48.513 28.8775 48.0188 30.2407 47.4372 31.6385C47.012 30.8107 46.5708 29.9916 46.1138 29.1819ZM38.0221 21.094C38.9284 22.1017 39.8362 23.2267 40.7291 24.4475C38.9178 24.3597 37.1036 24.3593 35.2923 24.4464C36.1861 23.2369 37.1016 22.1133 38.0221 21.094ZM29.8785 29.1957C29.4272 29.999 28.9942 30.8129 28.5799 31.6368C28.0078 30.2441 27.5181 28.8745 27.1183 27.552C28.4307 27.2507 29.8303 27.0043 31.2887 26.8174C30.8005 27.5987 30.3303 28.3918 29.8785 29.1957ZM31.3305 41.2466C29.8239 41.074 28.4033 40.8404 27.0912 40.5472C27.4973 39.2011 27.9977 37.8024 28.5822 36.3797C28.9982 37.2043 29.433 38.0187 29.8862 38.8223C30.3523 39.6484 30.835 40.4576 31.3305 41.2466ZM38.0764 46.9685C37.1449 45.9373 36.2159 44.7965 35.3086 43.5695C36.1895 43.6049 37.0874 43.6229 38 43.6229C38.9376 43.6229 39.8644 43.6014 40.7767 43.5597C39.881 44.8088 38.9766 45.9514 38.0764 46.9685ZM47.4557 36.3071C48.0706 37.7454 48.5888 39.1367 49.0003 40.4598C47.6666 40.7721 46.2266 41.0237 44.7094 41.2104C45.1955 40.4195 45.6664 39.6187 46.1215 38.8085C46.5843 37.9849 47.0291 37.1509 47.4557 36.3071ZM44.4193 37.8009C43.7225 39.0431 42.9866 40.2617 42.2126 41.4548C40.8106 41.5567 39.4055 41.6073 38 41.6065C36.5684 41.6065 35.176 41.5608 33.8352 41.4716C33.041 40.2812 32.291 39.0605 31.5868 37.812C30.8858 36.5701 30.2313 35.3013 29.6242 34.0084C30.2298 32.7152 30.8825 31.4458 31.581 30.2029L31.5808 30.2031C32.2791 28.9599 33.0231 27.7444 33.8113 26.5592C35.1793 26.453 36.5821 26.3977 37.9998 26.3977C39.424 26.3977 40.8288 26.4535 42.1964 26.5605C42.9766 27.7439 43.7159 28.9553 44.4129 30.1922C45.1137 31.4324 45.7751 32.6955 46.3959 33.9798C45.7815 35.2772 45.1222 36.5517 44.4193 37.8009ZM48.4731 15.2814C50.0134 16.193 50.6124 19.8694 49.6446 24.6905C49.5828 24.9981 49.5135 25.3114 49.438 25.6291C47.5294 25.1769 45.457 24.8408 43.2873 24.6319C42.0234 22.7847 40.7136 21.1054 39.3989 19.6516C39.7434 19.3108 40.0962 18.9787 40.4569 18.6559C43.853 15.623 47.027 14.4256 48.4731 15.2814ZM38 29.7449C40.2686 29.7449 42.1077 31.6322 42.1077 33.9602C42.1077 36.2883 40.2686 38.1756 38 38.1756C35.7314 38.1756 33.8923 36.2883 33.8923 33.9602C33.8923 31.6322 35.7314 29.7449 38 29.7449Z" fill="#00D8FF"/>
</g>
<defs>
<filter id="filter0_d_2_9" x="0" y="0" width="76" height="76" filterUnits="userSpaceOnUse" color-interpolation-filters="sRGB">
<feFlood flood-opacity="0" result="BackgroundImageFix"/>
<feColorMatrix in="SourceAlpha" type="matrix" values="0 0 0 0 0 0 0 0 0 0 0 0 0 0 0 0 0 0 127 0" result="hardAlpha"/>
<feMorphology radius="5" operator="dilate" in="SourceAlpha" result="effect1_dropShadow_2_9"/>
<feOffset dy="4"/>
<feGaussianBlur stdDeviation="4"/>
<feComposite in2="hardAlpha" operator="out"/>
<feColorMatrix type="matrix" values="0 0 0 0 0 0 0 0 0 0 0 0 0 0 0 0 0 0 0.1 0"/>
<feBlend mode="normal" in2="BackgroundImageFix" result="effect1_dropShadow_2_9"/>
<feBlend mode="normal" in="SourceGraphic" in2="effect1_dropShadow_2_9" result="shape"/>
</filter>
<filter id="filter1_d_2_9" x="8" y="10" width="60" height="56" filterUnits="userSpaceOnUse" color-interpolation-filters="sRGB">
<feFlood flood-opacity="0" result="BackgroundImageFix"/>
<feColorMatrix in="SourceAlpha" type="matrix" values="0 0 0 0 0 0 0 0 0 0 0 0 0 0 0 0 0 0 127 0" result="hardAlpha"/>
<feOffset dy="4"/>
<feGaussianBlur stdDeviation="3.5"/>
<feComposite in2="hardAlpha" operator="out"/>
<feColorMatrix type="matrix" values="0 0 0 0 0.921569 0 0 0 0 0.929412 0 0 0 0 0.941176 0 0 0 0.25 0"/>
<feBlend mode="normal" in2="BackgroundImageFix" result="effect1_dropShadow_2_9"/>
<feBlend mode="normal" in="SourceGraphic" in2="effect1_dropShadow_2_9" result="shape"/>
</filter>
</defs>
</svg>
